<svg xmlns="http://www.w3.org/2000/svg" viewBox="0 0 64 64" id="lego"><path fill="#18cd3e" d="M3 22h20v12H3z"></path><path fill="#d7e6ef" d="M23 10h19v12H23z"></path><path fill="#3cacef" d="M42 10h19v12H42z"></path><path fill="#c02027" d="M23 22h38v12H23z"></path><path fill="#ffc02a" d="M61 46H42V34h19z"></path><path fill="#db9300" d="M42 46H3V34h39z"></path><path fill="#545a6d" d="M22 58H3V46h19z"></path><path fill="#44394a" d="M61 58H22V46h39z"></path><path fill="#a4c0d8" d="M25 6h4v4h-4zM35 6h4v4h-4z"></path><path fill="#129a2f" d="M5 18h4v4H5zM15 18h4v4h-4z"></path><path fill="#189fef" d="M45 6h4v4h-4zM55 6h4v4h-4z"></path></svg>